<svg width="65" height="65" viewBox="0 0 65 65" fill="none" xmlns="http://www.w3.org/2000/svg">
<path d="M33.4517 35.0188H38.7009C40.194 35.0188 41.1391 34.1968 41.1391 32.8771C41.1391 31.6338 40.194 30.7372 38.7009 30.7372H33.4517C33.2783 30.7372 33.1274 30.8863 33.1274 31.0355V34.7205C33.1534 34.8939 33.2765 35.0188 33.4517 35.0188ZM33.4517 43.5091H38.876C40.5425 43.5091 41.5379 42.6629 41.5379 41.168C41.5379 39.8744 40.5928 38.827 38.876 38.827H33.4517C33.2783 38.827 33.1274 38.9778 33.1274 39.127V43.1848C33.1534 43.3843 33.2765 43.5091 33.4517 43.5091ZM52.6572 11.4172L37.1315 26.903H39.6703C43.6258 26.903 45.9652 29.3915 45.9652 32.1054C45.9652 34.2471 44.5224 35.8165 42.979 36.5119C42.731 36.6125 42.731 36.961 43.0033 37.0599C44.7946 37.757 46.064 39.6264 46.064 41.8149C46.064 44.9016 44.0004 47.3676 39.9946 47.3676H28.9967C28.8233 47.3676 28.6724 47.2184 28.6724 47.0693V35.3431L11.631 52.3203C11.4056 52.5457 11.5565 52.9428 11.879 52.9428H52.8584C52.9308 52.9419 52.9999 52.9128 53.0511 52.8616C53.1023 52.8104 53.1315 52.7412 53.1324 52.6688V11.6409C53.2069 11.3669 52.8584 11.2178 52.659 11.4155L52.6572 11.4172Z" fill="#4F495E"/>
</svg>
