<svg width="24" height="25" viewBox="0 0 24 25" fill="none" xmlns="http://www.w3.org/2000/svg">
<g clip-path="url(#clip0_55_16975)">
<path d="M10 11.73H6C5.73478 11.73 5.48043 11.6246 5.29289 11.4371C5.10536 11.2496 5 10.9952 5 10.73V7.72998C5 7.46476 5.10536 7.21041 5.29289 7.02287C5.48043 6.83534 5.73478 6.72998 6 6.72998H9C9.26522 6.72998 9.51957 6.83534 9.70711 7.02287C9.89464 7.21041 10 7.46476 10 7.72998V13.73C10 16.397 8.667 18.063 6 18.73" stroke="#0ABB7A" stroke-width="1.5" stroke-linecap="round" stroke-linejoin="round"/>
<path d="M19 11.73H15C14.7348 11.73 14.4804 11.6246 14.2929 11.4371C14.1054 11.2496 14 10.9952 14 10.73V7.72998C14 7.46476 14.1054 7.21041 14.2929 7.02287C14.4804 6.83534 14.7348 6.72998 15 6.72998H18C18.2652 6.72998 18.5196 6.83534 18.7071 7.02287C18.8946 7.21041 19 7.46476 19 7.72998V13.73C19 16.397 17.667 18.063 15 18.73" stroke="#0ABB7A" stroke-width="1.5" stroke-linecap="round" stroke-linejoin="round"/>
</g>
<defs>
<clipPath id="clip0_55_16975">
<rect width="24" height="24" fill="white" transform="translate(0 0.72998)"/>
</clipPath>
</defs>
</svg>
