<svg width="64" height="65" viewBox="0 0 64 65" fill="none" xmlns="http://www.w3.org/2000/svg">
<path d="M35.8507 22.151C34.784 22.7163 34.4 23.6497 34.4 26.231C34.4 26.231 34.9387 25.7137 35.7307 25.423C36.219 25.246 36.6789 24.999 37.096 24.6897C37.9974 24.031 38.1227 23.191 38.1227 21.767C38.1227 21.767 36.6481 21.7243 35.8507 22.151ZM29.5867 22.7617C28.7334 23.5243 28.472 24.7324 28.472 24.7324L25.5974 35.775L23.2267 26.7217C22.9947 25.775 22.5707 24.567 21.9067 23.7697C21.08 22.7617 19.3894 22.7004 19.2 22.7004C19.0187 22.7004 17.3094 22.7617 16.464 23.7857C15.808 24.5937 15.3814 25.7884 15.1494 26.7404L12.7787 35.7937L9.93605 24.735C9.93605 24.735 9.69072 23.511 8.82138 22.7644C7.41072 21.5244 5.31738 21.7857 5.31738 21.7857L10.7787 42.4897C10.7787 42.4897 12.584 42.6284 13.4854 42.1537C14.6614 41.5564 15.2427 41.0844 15.9627 38.2523C16.6054 35.7457 18.3947 28.375 18.56 27.839C18.6374 27.5777 18.7467 26.9537 19.2027 26.9537C19.68 26.9537 19.7734 27.5644 19.8454 27.839C20.016 28.359 21.7894 35.7457 22.448 38.2523C23.1627 41.0657 23.7307 41.5244 24.9254 42.1537C25.8267 42.6284 27.632 42.4897 27.632 42.4897L33.0934 21.799C33.088 21.799 30.9894 21.535 29.5867 22.7617ZM38.1227 25.1617C38.1227 25.1617 37.7787 25.6817 37.0027 26.1404C36.5014 26.4177 36.024 26.615 35.504 26.863C34.6427 27.2737 34.4 27.7484 34.4 28.4497V42.4924C34.4 42.4924 35.792 42.6604 36.6774 42.215C37.84 41.623 38.0987 41.055 38.12 38.471L38.1227 25.1617ZM51.7547 32.1804L58.6854 21.847C58.6854 21.847 55.7627 21.343 54.3094 22.671C53.376 23.511 52.3414 25.031 52.3414 25.031L49.8027 28.727C49.6614 28.911 49.5254 29.127 49.2694 29.127C49.0054 29.127 48.84 28.927 48.7307 28.727L46.1654 25.0417C46.1654 25.0417 45.1387 23.527 44.1921 22.6844C42.752 21.3537 39.816 21.8577 39.816 21.8577L46.7574 32.1644L39.816 42.4524C39.816 42.4524 42.872 42.8497 44.3174 41.519C45.2507 40.679 46.152 39.287 46.152 39.287L48.6854 35.599C48.8267 35.4177 48.9627 35.207 49.2187 35.207C49.4854 35.207 49.648 35.407 49.7574 35.599L52.296 39.287C52.296 39.287 53.2427 40.647 54.1627 41.519C55.5974 42.8497 58.6081 42.4524 58.6081 42.4524L51.7547 32.1804Z" fill="#4F495E"/>
</svg>
