<svg width="24" height="25" viewBox="0 0 24 25" fill="none" xmlns="http://www.w3.org/2000/svg">
<path d="M20 3.73633H4C3.73478 3.73633 3.48043 3.84168 3.29289 4.02922C3.10536 4.21676 3 4.47111 3 4.73633V20.7363C3 21.0015 3.10536 21.2559 3.29289 21.4434C3.48043 21.631 3.73478 21.7363 4 21.7363H12.615V14.7763H10.277V12.0513H12.615V10.0513C12.615 7.72633 14.035 6.45933 16.115 6.45933C16.814 6.45733 17.514 6.49333 18.21 6.56633V8.98633H16.775C15.647 8.98633 15.427 9.52433 15.427 10.3113V12.0463H18.124L17.774 14.7713H15.426V21.7363H20C20.2652 21.7363 20.5196 21.631 20.7071 21.4434C20.8946 21.2559 21 21.0015 21 20.7363V4.73633C21 4.47111 20.8946 4.21676 20.7071 4.02922C20.5196 3.84168 20.2652 3.73633 20 3.73633Z" fill="white"/>
</svg>
