<svg width="25" height="25" viewBox="0 0 25 25" fill="none" xmlns="http://www.w3.org/2000/svg">
<g clip-path="url(#clip0_47_10601)">
<path d="M15.4312 5.8793C16.3755 5.8793 17.2812 6.25445 17.9489 6.92221C18.6167 7.58997 18.9919 8.49565 18.9919 9.44C18.9919 8.49565 19.367 7.58997 20.0348 6.92221C20.7025 6.25445 21.6082 5.8793 22.5526 5.8793C21.6082 5.8793 20.7025 5.50416 20.0348 4.8364C19.367 4.16864 18.9919 3.26296 18.9919 2.3186C18.9919 3.26296 18.6167 4.16864 17.9489 4.8364C17.2812 5.50416 16.3755 5.8793 15.4312 5.8793Z" fill="url(#paint0_linear_47_10601)"/>
<path d="M15.4312 5.8793C16.3755 5.8793 17.2812 6.25445 17.9489 6.92221C18.6167 7.58997 18.9919 8.49565 18.9919 9.44C18.9919 8.49565 19.367 7.58997 20.0348 6.92221C20.7025 6.25445 21.6082 5.8793 22.5526 5.8793C21.6082 5.8793 20.7025 5.50416 20.0348 4.8364C19.367 4.16864 18.9919 3.26296 18.9919 2.3186C18.9919 3.26296 18.6167 4.16864 17.9489 4.8364C17.2812 5.50416 16.3755 5.8793 15.4312 5.8793Z" fill="url(#paint1_linear_47_10601)"/>
<path d="M15.4312 18.5164C16.3755 18.5164 17.2812 18.8915 17.9489 19.5593C18.6167 20.2271 18.9919 21.1327 18.9919 22.0771C18.9919 21.1327 19.367 20.2271 20.0348 19.5593C20.7025 18.8915 21.6082 18.5164 22.5526 18.5164C21.6082 18.5164 20.7025 18.1412 20.0348 17.4735C19.367 16.8057 18.9919 15.9 18.9919 14.9557C18.9919 15.9 18.6167 16.8057 17.9489 17.4735C17.2812 18.1412 16.3755 18.5164 15.4312 18.5164Z" fill="url(#paint2_linear_47_10601)"/>
<path d="M13.7848 15.1708C11.9532 17.0025 10.9242 19.4867 10.9242 22.0771C10.9242 19.4867 9.89515 17.0025 8.06349 15.1708C6.23184 13.3392 3.74758 12.3102 1.15723 12.3102C3.74758 12.3102 6.23184 11.2811 8.06349 9.44948C9.89515 7.61782 10.9242 5.13357 10.9242 2.54321C10.9242 5.13357 11.9532 7.61782 13.7848 9.44948C15.6165 11.2811 18.1007 12.3102 20.6911 12.3102C18.1007 12.3102 15.6165 13.3392 13.7848 15.1708Z" fill="url(#paint3_linear_47_10601)"/>
</g>
<defs>
<linearGradient id="paint0_linear_47_10601" x1="15.4885" y1="9.44" x2="22.5526" y2="9.44" gradientUnits="userSpaceOnUse">
<stop stop-color="#7C3AED"/>
<stop offset="1" stop-color="#0C24D6"/>
</linearGradient>
<linearGradient id="paint1_linear_47_10601" x1="15.4885" y1="9.44" x2="22.5526" y2="9.44" gradientUnits="userSpaceOnUse">
<stop stop-color="#7C3AED"/>
<stop offset="1" stop-color="#0C24D6"/>
</linearGradient>
<linearGradient id="paint2_linear_47_10601" x1="15.4885" y1="22.0771" x2="22.5526" y2="22.0771" gradientUnits="userSpaceOnUse">
<stop stop-color="#7C3AED"/>
<stop offset="1" stop-color="#0C24D6"/>
</linearGradient>
<linearGradient id="paint3_linear_47_10601" x1="1.31454" y1="22.0771" x2="20.6911" y2="22.0771" gradientUnits="userSpaceOnUse">
<stop stop-color="#7C3AED"/>
<stop offset="1" stop-color="#0C24D6"/>
</linearGradient>
<clipPath id="clip0_47_10601">
<rect width="24" height="24" fill="white" transform="translate(0.498047 0.310059)"/>
</clipPath>
</defs>
</svg>
