<svg width="24" height="25" viewBox="0 0 24 25" fill="none" xmlns="http://www.w3.org/2000/svg">
<path d="M21.5931 7.93934C21.4792 7.51674 21.2566 7.13134 20.9475 6.8215C20.6383 6.51167 20.2534 6.2882 19.8311 6.17334C18.2651 5.74334 12.0001 5.73634 12.0001 5.73634C12.0001 5.73634 5.73609 5.72934 4.16909 6.14034C3.74701 6.26048 3.36291 6.48711 3.05365 6.79847C2.7444 7.10983 2.52037 7.49546 2.40309 7.91834C1.99009 9.48434 1.98609 12.7323 1.98609 12.7323C1.98609 12.7323 1.98209 15.9963 2.39209 17.5463C2.62209 18.4033 3.29709 19.0803 4.15509 19.3113C5.73709 19.7413 11.9851 19.7483 11.9851 19.7483C11.9851 19.7483 18.2501 19.7553 19.8161 19.3453C20.2386 19.2307 20.6238 19.0077 20.9337 18.6985C21.2436 18.3893 21.4675 18.0046 21.5831 17.5823C21.9971 16.0173 22.0001 12.7703 22.0001 12.7703C22.0001 12.7703 22.0201 9.50534 21.5931 7.93934ZM9.99609 15.7413L10.0011 9.74134L15.2081 12.7463L9.99609 15.7413Z" fill="white"/>
</svg>
