<svg width="25" height="24" viewBox="0 0 25 24" fill="none" xmlns="http://www.w3.org/2000/svg">
<g clip-path="url(#clip0_47_16558)">
<path d="M3.66675 12C3.66675 13.1819 3.89954 14.3522 4.35183 15.4442C4.80412 16.5361 5.46706 17.5282 6.30279 18.364C7.13851 19.1997 8.13067 19.8626 9.2226 20.3149C10.3145 20.7672 11.4849 21 12.6667 21C13.8486 21 15.019 20.7672 16.1109 20.3149C17.2028 19.8626 18.195 19.1997 19.0307 18.364C19.8664 17.5282 20.5294 16.5361 20.9817 15.4442C21.434 14.3522 21.6667 13.1819 21.6667 12C21.6667 10.8181 21.434 9.64778 20.9817 8.55585C20.5294 7.46392 19.8664 6.47177 19.0307 5.63604C18.195 4.80031 17.2028 4.13738 16.1109 3.68508C15.019 3.23279 13.8486 3 12.6667 3C11.4849 3 10.3145 3.23279 9.2226 3.68508C8.13067 4.13738 7.13851 4.80031 6.30279 5.63604C5.46706 6.47177 4.80412 7.46392 4.35183 8.55585C3.89954 9.64778 3.66675 10.8181 3.66675 12Z" stroke="#1E2027" stroke-width="1.5" stroke-linecap="round" stroke-linejoin="round"/>
<path d="M9.66675 12L11.6667 14L15.6667 10" stroke="#1E2027" stroke-width="1.5" stroke-linecap="round" stroke-linejoin="round"/>
</g>
<defs>
<clipPath id="clip0_47_16558">
<rect width="24" height="24" fill="white" transform="translate(0.666748)"/>
</clipPath>
</defs>
</svg>
