<svg width="24" height="25" viewBox="0 0 24 25" fill="none" xmlns="http://www.w3.org/2000/svg">
<path d="M20.9471 9.04129C20.937 8.28391 20.7952 7.53406 20.5281 6.82529C20.2964 6.22744 19.9426 5.68448 19.4892 5.23112C19.0359 4.77775 18.4929 4.42394 17.8951 4.19229C17.1954 3.92964 16.4562 3.78763 15.7091 3.77229C14.7471 3.72929 14.4421 3.71729 12.0001 3.71729C9.55807 3.71729 9.24507 3.71729 8.29007 3.77229C7.54323 3.78774 6.80442 3.92975 6.10507 4.19229C5.50713 4.42377 4.96409 4.77753 4.5107 5.23092C4.05732 5.68431 3.70356 6.22734 3.47207 6.82529C3.2089 7.52442 3.06719 8.2634 3.05307 9.01029C3.01007 9.97329 2.99707 10.2783 2.99707 12.7203C2.99707 15.1623 2.99707 15.4743 3.05307 16.4303C3.06807 17.1783 3.20907 17.9163 3.47207 18.6173C3.70395 19.215 4.05797 19.7579 4.51151 20.2111C4.96505 20.6643 5.50813 21.0179 6.10607 21.2493C6.8035 21.5225 7.54244 21.6747 8.29107 21.6993C9.25407 21.7423 9.55907 21.7553 12.0011 21.7553C14.4431 21.7553 14.7561 21.7553 15.7111 21.6993C16.4582 21.6846 17.1974 21.5429 17.8971 21.2803C18.4948 21.0484 19.0376 20.6945 19.4909 20.2411C19.9442 19.7878 20.2982 19.245 20.5301 18.6473C20.7931 17.9473 20.9341 17.2093 20.9491 16.4603C20.9921 15.4983 21.0051 15.1933 21.0051 12.7503C21.0031 10.3083 21.0031 9.99829 20.9471 9.04129ZM11.9941 17.3383C9.44007 17.3383 7.37107 15.2693 7.37107 12.7153C7.37107 10.1613 9.44007 8.09229 11.9941 8.09229C13.2202 8.09229 14.396 8.57935 15.263 9.44633C16.13 10.3133 16.6171 11.4892 16.6171 12.7153C16.6171 13.9414 16.13 15.1173 15.263 15.9842C14.396 16.8512 13.2202 17.3383 11.9941 17.3383ZM16.8011 8.99928C16.6595 8.99942 16.5192 8.97162 16.3884 8.9175C16.2575 8.86337 16.1386 8.78397 16.0385 8.68384C15.9384 8.58371 15.859 8.46482 15.8049 8.33397C15.7507 8.20312 15.7229 8.06289 15.7231 7.92129C15.7231 7.77979 15.7509 7.63967 15.8051 7.50894C15.8592 7.37822 15.9386 7.25943 16.0387 7.15938C16.1387 7.05932 16.2575 6.97995 16.3882 6.92581C16.519 6.87166 16.6591 6.84379 16.8006 6.84379C16.9421 6.84379 17.0822 6.87166 17.2129 6.92581C17.3436 6.97995 17.4624 7.05932 17.5625 7.15938C17.6625 7.25943 17.7419 7.37822 17.7961 7.50894C17.8502 7.63967 17.8781 7.77979 17.8781 7.92129C17.8781 8.51729 17.3961 8.99928 16.8011 8.99928Z" fill="white"/>
<path d="M11.994 15.7184C13.6525 15.7184 14.997 14.3739 14.997 12.7154C14.997 11.0569 13.6525 9.7124 11.994 9.7124C10.3355 9.7124 8.99097 11.0569 8.99097 12.7154C8.99097 14.3739 10.3355 15.7184 11.994 15.7184Z" fill="white"/>
</svg>
