<svg width="65" height="65" viewBox="0 0 65 65" fill="none" xmlns="http://www.w3.org/2000/svg">
<path d="M39.3068 55.967L53.6562 52.8576C53.6562 52.8576 48.4802 17.823 48.4375 17.591C48.3948 17.3616 48.2082 17.207 48.0162 17.207C47.8242 17.207 44.1788 16.9376 44.1788 16.9376C44.1788 16.9376 41.6482 14.407 41.3415 14.1376C41.2695 14.0603 41.1895 14.023 41.1122 13.983L39.3068 55.967ZM40.4962 13.9083C40.4535 13.9083 40.3815 13.9456 40.3442 13.9456C40.3015 13.9456 39.7655 14.103 38.9228 14.367C38.0748 11.9163 36.5788 9.65231 33.9335 9.65231H33.7042C32.9335 8.68964 32.0162 8.26831 31.2082 8.26831C25.0322 8.26831 22.0722 15.9803 21.1548 19.8923C18.7762 20.6256 17.0535 21.1616 16.8535 21.239C15.5095 21.6603 15.4748 21.6976 15.3228 22.967C15.1708 23.8843 11.6775 50.9376 11.6775 50.9376L38.6562 56.0016L40.4962 13.9083ZM33.4695 15.7856V16.0576C31.9788 16.519 30.3282 17.0176 28.7148 17.5163C29.6375 13.9883 31.3602 12.2576 32.8562 11.6043C33.2455 12.6043 33.4695 13.9456 33.4695 15.7856ZM31.0162 9.91898C31.2828 9.91898 31.5522 9.99364 31.8242 10.191C29.8722 11.1083 27.7202 13.4496 26.8348 18.1323C25.5854 18.532 24.3311 18.916 23.0722 19.2843C24.1095 15.7136 26.6055 9.91898 31.0162 9.91898ZM32.0882 30.751C32.0882 30.751 30.4775 29.911 28.5628 29.911C25.6828 29.911 25.5682 31.7136 25.5682 32.175C25.5682 34.631 32.0162 35.5883 32.0162 41.383C32.0162 45.9483 29.1362 48.8656 25.2242 48.8656C20.5415 48.8656 18.1628 45.9483 18.1628 45.9483L19.4295 41.8043C19.4295 41.8043 21.8882 43.9163 23.9548 43.9163C24.203 43.9263 24.4507 43.8862 24.6831 43.7984C24.9155 43.7105 25.1277 43.5767 25.3072 43.4049C25.4867 43.2332 25.6297 43.027 25.7277 42.7987C25.8257 42.5704 25.8766 42.3247 25.8775 42.0763C25.8775 38.8523 20.5815 38.695 20.5815 33.4043C20.5815 28.9536 23.7682 24.6176 30.2535 24.6176C32.7495 24.6176 33.9735 25.343 33.9735 25.343L32.0882 30.751ZM34.5468 11.335C35.9282 11.495 36.8135 13.063 37.3842 14.831C36.6962 15.063 35.9255 15.2923 35.0828 15.559V15.0603C35.0828 13.5643 34.8908 12.335 34.5468 11.335Z" fill="#4F495E"/>
</svg>
