<svg width="24" height="25" viewBox="0 0 24 25" fill="none" xmlns="http://www.w3.org/2000/svg">
<path d="M20 3.73633H4C3.73478 3.73633 3.48043 3.84168 3.29289 4.02922C3.10536 4.21676 3 4.47111 3 4.73633V20.7363C3 21.0015 3.10536 21.2559 3.29289 21.4434C3.48043 21.631 3.73478 21.7363 4 21.7363H20C20.2652 21.7363 20.5196 21.631 20.7071 21.4434C20.8946 21.2559 21 21.0015 21 20.7363V4.73633C21 4.47111 20.8946 4.21676 20.7071 4.02922C20.5196 3.84168 20.2652 3.73633 20 3.73633ZM8.339 19.0733H5.667V10.4833H8.339V19.0733ZM7.003 9.31033C6.59244 9.31033 6.1987 9.14724 5.9084 8.85693C5.61809 8.56662 5.455 8.17288 5.455 7.76233C5.455 7.35177 5.61809 6.95803 5.9084 6.66773C6.1987 6.37742 6.59244 6.21433 7.003 6.21433C7.41356 6.21433 7.80729 6.37742 8.0976 6.66773C8.38791 6.95803 8.551 7.35177 8.551 7.76233C8.551 8.17288 8.38791 8.56662 8.0976 8.85693C7.80729 9.14724 7.41356 9.31033 7.003 9.31033ZM18.338 19.0733H15.669V14.8963C15.669 13.9003 15.651 12.6193 14.281 12.6193C12.891 12.6193 12.68 13.7053 12.68 14.8263V19.0743H10.013V10.4843H12.573V11.6583H12.61C12.965 10.9833 13.837 10.2713 15.134 10.2713C17.838 10.2713 18.337 12.0493 18.337 14.3633L18.338 19.0733Z" fill="white"/>
</svg>
