<svg width="129" height="42" viewBox="0 0 129 42" fill="none" xmlns="http://www.w3.org/2000/svg">
<path d="M70.9172 24.8956H71.0452L73.0657 16.3672H77.7141L73.2258 29.7051C73.0014 30.3836 72.6756 30.9927 72.2483 31.5323C71.8261 32.0773 71.2697 32.508 70.5803 32.8233C69.8911 33.1384 69.0304 33.2959 67.9993 33.2959C67.4919 33.2959 67.0084 33.2559 66.5491 33.1758C66.0895 33.101 65.6855 32.9969 65.3381 32.8633L66.3 29.7207C66.6634 29.849 66.995 29.9324 67.2942 29.9698C67.5986 30.0072 67.8578 29.9854 68.0715 29.9053C68.2906 29.8252 68.449 29.6727 68.5452 29.4483L68.6409 29.2237L64.3127 16.3672H68.9299L70.9172 24.8956ZM86.8616 12.0391C87.834 12.0391 88.7371 12.1783 89.5706 12.4561C90.4093 12.7286 91.1492 13.1185 91.7903 13.626C92.4368 14.1282 92.9583 14.7239 93.3538 15.4131C93.7492 16.1024 93.9899 16.8589 94.0754 17.6817H89.5706C89.5011 17.3986 89.391 17.1503 89.2415 16.9366C89.0919 16.7176 88.9052 16.5334 88.6809 16.3838C88.4619 16.2289 88.2052 16.1139 87.9114 16.0391C87.6228 15.959 87.3046 15.919 86.9573 15.919C86.2092 15.919 85.5703 16.0971 85.0413 16.4551C84.5176 16.8132 84.117 17.3297 83.8391 18.003C83.5667 18.6762 83.4309 19.4885 83.4309 20.4395C83.4309 21.4013 83.5617 22.2243 83.8235 22.9082C84.0853 23.5922 84.4751 24.1162 84.9934 24.4795C85.5117 24.8428 86.1557 25.0244 86.925 25.0245C87.6037 25.0245 88.1676 24.9253 88.6165 24.7276C89.0707 24.5299 89.4106 24.2492 89.635 23.8858C89.847 23.5424 89.9574 23.1416 89.969 22.6836H86.9895V19.5098H94.2678V21.7862C94.2678 23.2822 93.9495 24.5618 93.3137 25.625C92.6832 26.6831 91.8119 27.4961 90.7004 28.0625C89.5944 28.6235 88.3248 28.9034 86.8928 28.9034C85.2952 28.9033 83.8924 28.5644 82.6848 27.8858C81.4773 27.2072 80.5343 26.24 79.8557 24.9844C79.1824 23.7287 78.8459 22.2343 78.8459 20.503C78.846 19.1459 79.0517 17.9438 79.4631 16.8965C79.8799 15.8492 80.4572 14.9646 81.1946 14.2432C81.932 13.5166 82.7841 12.9683 83.7512 12.5997C84.7184 12.2257 85.7555 12.0391 86.8616 12.0391ZM102.213 16.2061C103.143 16.2061 103.985 16.3502 104.739 16.6387C105.492 16.9272 106.136 17.3463 106.67 17.8965C107.205 18.4416 107.616 19.1047 107.905 19.8848C108.193 20.6649 108.337 21.5438 108.337 22.5215V23.5479H100.322V23.7403C100.322 24.1357 100.405 24.4889 100.571 24.7989C100.736 25.1085 100.974 25.3512 101.283 25.5274C101.593 25.7037 101.968 25.792 102.406 25.792C102.71 25.792 102.988 25.7496 103.24 25.6641C103.496 25.5786 103.715 25.4553 103.897 25.295C104.078 25.1294 104.212 24.9319 104.297 24.7022H108.337C108.198 25.5572 107.87 26.3002 107.352 26.9307C106.833 27.5559 106.146 28.0424 105.291 28.3897C104.442 28.7316 103.448 28.9024 102.31 28.9024C100.995 28.9024 99.8626 28.6508 98.9114 28.1485C97.9656 27.6408 97.2359 26.9146 96.7229 25.9688C96.2152 25.0176 95.9612 23.879 95.9612 22.5538C95.9612 21.2822 96.2178 20.1708 96.7307 19.2198C97.2437 18.2686 97.9684 17.5281 98.9036 16.9991C99.8385 16.4703 100.942 16.2062 102.213 16.2061ZM57.9583 16.2071C58.8398 16.2071 59.6304 16.3112 60.3303 16.5196C61.0303 16.7226 61.6268 17.0083 62.1184 17.377C62.6099 17.7403 62.984 18.1677 63.2405 18.6592C63.5023 19.1454 63.633 19.6745 63.6331 20.2461V28.6788H59.4973V26.9473H59.4006C59.1548 27.4068 58.8558 27.7784 58.5032 28.0616C58.1559 28.3448 57.7577 28.5505 57.3088 28.6788C56.8654 28.807 56.3763 28.8711 55.842 28.8711C55.0566 28.8711 54.3619 28.7428 53.7581 28.4864C53.1596 28.2245 52.6889 27.8289 52.3469 27.2999C52.0051 26.7709 51.8342 26.0977 51.8342 25.2803C51.8342 24.607 51.9492 24.0323 52.179 23.5567C52.4087 23.0759 52.7295 22.6835 53.1409 22.379C53.5523 22.0744 54.0304 21.842 54.5754 21.6817C55.1258 21.5214 55.7189 21.4163 56.3547 21.3682C57.044 21.3148 57.5971 21.2506 58.0139 21.1758C58.4361 21.0957 58.7409 20.9866 58.928 20.8477C59.115 20.7034 59.2083 20.5135 59.2083 20.2784V20.2461C59.2082 19.9257 59.0857 19.6798 58.8401 19.5088C58.5943 19.3378 58.2785 19.253 57.8938 19.253C57.4717 19.253 57.1268 19.3462 56.8596 19.5332C56.5979 19.7149 56.4404 19.9958 56.387 20.375H52.3147C52.3681 19.6269 52.6064 18.9372 53.0286 18.3067C53.456 17.6708 54.0782 17.1626 54.8958 16.7832C55.7133 16.3985 56.7345 16.2071 57.9583 16.2071ZM43.9104 25.0879H50.5471V28.6788H39.4534V12.2637H43.9104V25.0879ZM118.254 16.2061C119.125 16.2061 119.881 16.4059 120.523 16.8067C121.169 17.2021 121.669 17.7477 122.022 18.4424C122.38 19.1369 122.556 19.9302 122.551 20.8223V28.6778H118.126V21.752C118.131 21.143 117.977 20.6647 117.661 20.3174C117.351 19.9701 116.918 19.7969 116.363 19.7969C115.999 19.7969 115.681 19.8769 115.408 20.0372C115.141 20.1921 114.935 20.4163 114.791 20.71C114.647 20.9985 114.572 21.3461 114.567 21.752V28.6778H110.143V16.3663H114.343V18.7061H114.471C114.738 17.9261 115.209 17.3146 115.882 16.8711C116.561 16.4277 117.351 16.2061 118.254 16.2061ZM59.2405 23.292C59.1229 23.3401 58.9971 23.386 58.8635 23.4288C58.7353 23.4715 58.5961 23.5115 58.4465 23.5489C58.3024 23.5862 58.1472 23.6213 57.9817 23.6534C57.8215 23.6854 57.653 23.7146 57.4768 23.7413C57.1349 23.7947 56.854 23.883 56.635 24.0059C56.4215 24.1234 56.2614 24.2702 56.1545 24.4463C56.053 24.6173 56.0022 24.8098 56.0022 25.0235C56.0022 25.3655 56.1221 25.6279 56.3625 25.8096C56.603 25.9913 56.9105 26.082 57.2844 26.0821C57.6211 26.0821 57.9368 26.012 58.2307 25.8731C58.5298 25.7342 58.7732 25.5342 58.9602 25.2725C59.1472 25.0107 59.2405 24.6924 59.2405 24.3184V23.292ZM102.31 19.3155C101.952 19.3155 101.623 19.3929 101.323 19.5479C101.024 19.6975 100.784 19.9067 100.603 20.1739C100.427 20.441 100.332 20.7534 100.322 21.1114H104.266C104.261 20.7588 104.17 20.4488 103.993 20.1817C103.822 19.9092 103.589 19.6975 103.295 19.5479C103.007 19.3931 102.678 19.3155 102.31 19.3155Z" fill="#1E2027"/>
<path d="M11.9041 29.1187H23.9246V34.5747H6.44897V17.0991H11.9041V29.1187ZM34.0662 24.9009H16.5906V7.42529H34.0662V24.9009ZM21.947 19.5444H28.7087V12.7827H21.947V19.5444Z" fill="url(#paint0_linear_177_1080)"/>
<path d="M11.9041 29.1187H23.9246V34.5747H6.44897V17.0991H11.9041V29.1187ZM34.0662 24.9009H16.5906V7.42529H34.0662V24.9009ZM21.947 19.5444H28.7087V12.7827H21.947V19.5444Z" fill="url(#paint1_linear_177_1080)"/>
<defs>
<linearGradient id="paint0_linear_177_1080" x1="6.44897" y1="7.42529" x2="34.066" y2="34.5748" gradientUnits="userSpaceOnUse">
<stop stop-color="#7C3AED"/>
<stop offset="1" stop-color="#0C24D6"/>
</linearGradient>
<linearGradient id="paint1_linear_177_1080" x1="16.8854" y1="25.1076" x2="34.0654" y2="7.42457" gradientUnits="userSpaceOnUse">
<stop stop-color="#09CC85" stop-opacity="0"/>
<stop offset="1" stop-color="#09CC85"/>
</linearGradient>
</defs>
</svg>
