<svg width="128" height="40" viewBox="0 0 128 40" fill="none" xmlns="http://www.w3.org/2000/svg">
<path d="M70.3684 23.7334H70.4963L72.5002 15.2715H77.1135L72.6594 28.5059C72.4367 29.1792 72.1129 29.7839 71.6887 30.3193C71.2699 30.86 70.7183 31.2868 70.0344 31.5996C69.3505 31.9123 68.497 32.0683 67.4739 32.0684C66.9702 32.0684 66.4904 32.0287 66.0344 31.9492C65.5785 31.875 65.1779 31.7722 64.8333 31.6396L65.7874 28.5215C66.1479 28.6487 66.4768 28.7314 66.7737 28.7686C67.0759 28.8057 67.3331 28.7836 67.5452 28.7041C67.7626 28.6246 67.9195 28.4737 68.0149 28.251L68.1096 28.0283L63.8147 15.2715H68.3967L70.3684 23.7334ZM86.1877 10.9775C87.1527 10.9775 88.0491 11.1149 88.8762 11.3906C89.7086 11.661 90.4431 12.0481 91.0793 12.5518C91.7209 13.0502 92.2378 13.6422 92.6301 14.3262C93.0223 15.01 93.2611 15.7599 93.3459 16.5762H88.8762C88.8073 16.2953 88.6984 16.0489 88.55 15.8369C88.4016 15.6195 88.2161 15.4365 87.9934 15.2881C87.776 15.1343 87.5214 15.0205 87.2297 14.9463C86.9434 14.8668 86.6281 14.8271 86.2834 14.8271C85.5413 14.8271 84.9079 15.0043 84.3831 15.3594C83.8635 15.7146 83.4654 16.2265 83.1897 16.8945C82.9193 17.5626 82.7844 18.3687 82.7844 19.3125C82.7844 20.2668 82.9143 21.0831 83.1741 21.7617C83.4339 22.4404 83.8209 22.9607 84.3352 23.3213C84.8494 23.6816 85.488 23.8622 86.2512 23.8623C86.9246 23.8623 87.4845 23.7636 87.9299 23.5674C88.3805 23.3712 88.717 23.0929 88.9397 22.7324C89.1503 22.3915 89.2603 21.9937 89.2717 21.5391H86.3157V18.3896H93.5374V20.6484C93.5374 22.133 93.221 23.4029 92.5901 24.458C91.9644 25.5079 91.1002 26.3139 89.9973 26.876C88.8998 27.4326 87.6408 27.7109 86.22 27.7109C84.6346 27.7109 83.2425 27.3746 82.0442 26.7012C80.8459 26.0278 79.9099 25.0682 79.2366 23.8223C78.5685 22.5762 78.2346 21.0939 78.2346 19.376C78.2346 18.0293 78.4387 16.8361 78.8469 15.7969C79.2605 14.7577 79.833 13.8798 80.5647 13.1641C81.2963 12.4431 82.1423 11.9 83.1018 11.5342C84.0614 11.1631 85.0903 10.9776 86.1877 10.9775ZM101.421 15.1123C102.344 15.1124 103.179 15.2557 103.926 15.542C104.674 15.8283 105.313 16.2449 105.843 16.791C106.373 17.3317 106.781 17.9889 107.068 18.7627C107.354 19.5368 107.497 20.4096 107.497 21.3799V22.3975H99.5432V22.5889C99.5432 22.9811 99.6259 23.3312 99.7903 23.6387C99.9547 23.9461 100.191 24.1874 100.498 24.3623C100.806 24.5372 101.177 24.625 101.612 24.625C101.914 24.625 102.19 24.5819 102.439 24.4971C102.693 24.4122 102.911 24.2909 103.091 24.1318C103.271 23.9675 103.404 23.771 103.489 23.543H107.497C107.359 24.3913 107.033 25.1283 106.519 25.7539C106.005 26.3742 105.323 26.8565 104.475 27.2012C103.632 27.5405 102.645 27.7109 101.516 27.7109C100.212 27.7109 99.0875 27.4613 98.1438 26.9629C97.2054 26.4592 96.4819 25.7382 95.9729 24.7998C95.4692 23.856 95.217 22.7261 95.217 21.4111C95.2171 20.1494 95.4717 19.0462 95.9807 18.1025C96.4897 17.1589 97.2082 16.4243 98.136 15.8994C99.0638 15.3746 100.159 15.1123 101.421 15.1123ZM57.51 15.1123C58.3849 15.1123 59.1699 15.2161 59.8645 15.4229C60.5589 15.6243 61.1502 15.9076 61.6379 16.2734C62.1257 16.6339 62.4967 17.0582 62.7512 17.5459C63.011 18.0284 63.1409 18.5538 63.1409 19.1211V27.4883H59.0374V25.7695H58.9417C58.6977 26.2255 58.401 26.595 58.051 26.876C57.7064 27.157 57.3108 27.361 56.8655 27.4883C56.4255 27.6155 55.9404 27.6787 55.4104 27.6787C54.631 27.6787 53.9412 27.5514 53.342 27.2969C52.7484 27.0371 52.2819 26.6449 51.9426 26.1201C51.6033 25.5952 51.4338 24.9265 51.4338 24.1152C51.4339 23.4474 51.5477 22.8771 51.7756 22.4053C52.0036 21.9283 52.3216 21.5385 52.7297 21.2363C53.138 20.9341 53.6128 20.704 54.1536 20.5449C54.6997 20.3859 55.2883 20.2821 55.9192 20.2344C56.6031 20.1814 57.1521 20.1182 57.5657 20.0439C57.9842 19.9645 58.2863 19.8555 58.4719 19.7178C58.6575 19.5746 58.7502 19.3856 58.7502 19.1523V19.1211C58.7502 18.8031 58.6287 18.5593 58.385 18.3896C58.1411 18.22 57.8282 18.1348 57.4465 18.1348C57.0277 18.1348 56.6853 18.2275 56.4202 18.4131C56.1605 18.5933 56.0045 18.8718 55.9514 19.248H51.9104C51.9634 18.5058 52.1996 17.8219 52.6184 17.1963C53.0426 16.5653 53.6607 16.062 54.4719 15.6855C55.2832 15.3038 56.2958 15.1123 57.51 15.1123ZM43.5696 23.9258H50.1555V27.4883H39.1477V11.2002H43.5696V23.9258ZM117.338 15.1123C118.202 15.1124 118.952 15.3115 119.588 15.709C120.23 16.1013 120.726 16.642 121.075 17.3311C121.431 18.0203 121.606 18.808 121.601 19.6934V27.4883H117.21V20.6162C117.216 20.0118 117.062 19.537 116.749 19.1924C116.442 18.8477 116.012 18.6758 115.46 18.6758C115.1 18.6758 114.784 18.7551 114.514 18.9141C114.249 19.0678 114.045 19.2905 113.902 19.582C113.758 19.8684 113.684 20.2132 113.679 20.6162V27.4883H109.288V15.2715H113.456V17.5938H113.583C113.848 16.8196 114.316 16.2125 114.984 15.7725C115.657 15.3325 116.442 15.1123 117.338 15.1123ZM58.7825 22.1436C58.6659 22.1913 58.5409 22.2359 58.4084 22.2783C58.2813 22.3207 58.1436 22.3604 57.9954 22.3975C57.8522 22.4346 57.6978 22.4692 57.5334 22.501C57.3745 22.5328 57.2073 22.5624 57.0325 22.5889C56.6933 22.6419 56.4148 22.7297 56.1975 22.8516C55.9858 22.9681 55.8269 23.1134 55.7209 23.2881C55.6202 23.4578 55.5696 23.6492 55.5696 23.8613C55.5696 24.2005 55.6885 24.4604 55.927 24.6406C56.1656 24.8209 56.4709 24.9111 56.842 24.9111C57.176 24.9111 57.4889 24.8419 57.7805 24.7041C58.0774 24.5662 58.3186 24.3672 58.5042 24.1074C58.6896 23.8476 58.7825 23.5322 58.7825 23.1611V22.1436ZM101.516 18.1982C101.161 18.1983 100.835 18.2752 100.538 18.4287C100.241 18.5772 100.003 18.7847 99.8225 19.0498C99.6476 19.3148 99.5539 19.6245 99.5432 19.9795H103.456C103.451 19.6299 103.361 19.3225 103.187 19.0576C103.017 18.7872 102.786 18.5772 102.494 18.4287C102.208 18.275 101.882 18.1982 101.516 18.1982Z" fill="white"/>
<path d="M11.8123 27.9253H23.74V33.3374H6.39917V15.9976H11.8123V27.9253ZM33.8015 23.7397H16.4617V6.39893H33.8015V23.7397ZM21.7771 18.4243H28.4861V11.7144H21.7771V18.4243Z" fill="white"/>
</svg>
