<svg width="64" height="65" viewBox="0 0 64 65" fill="none" xmlns="http://www.w3.org/2000/svg">
<path d="M56.3957 15.6925C59.4847 15.6926 61.9853 18.0983 61.9855 21.0704V38.9982C61.9854 41.9701 59.485 44.376 56.3957 44.3761H38.8898L41.2931 50.0372L30.7258 44.3761H7.60564C4.51652 44.3761 2.01495 41.9704 2.01482 38.9982V21.0704C1.99049 18.122 4.49121 15.6925 7.58025 15.6925H56.3957ZM27.8576 18.8829C27.1507 18.9299 26.6139 19.2577 26.2482 19.9142C24.7367 22.5647 23.6643 26.8571 23.0304 32.8146C22.1041 30.563 21.3235 27.9126 20.714 24.7931C20.4459 23.4094 19.7876 22.753 18.715 22.8234C17.9837 22.8703 17.3744 23.3394 16.8869 24.2306L11.548 34.0109C10.6703 30.61 9.84182 26.4586 9.08611 21.5568C8.91547 20.3372 8.2081 19.7736 6.96502 19.8673C6.36764 19.9084 5.90061 20.0934 5.56463 20.4376L5.42889 20.5948C5.08773 21.017 4.94174 21.5564 5.03924 22.1661C6.4776 30.9614 7.81841 36.8953 9.0617 39.9679C9.54917 41.0934 10.1097 41.6328 10.7678 41.5861C11.7917 41.5157 13.0111 40.1553 14.4494 37.505C15.2051 36.004 16.3756 33.7521 17.9601 30.7501C19.2764 35.1831 21.0797 38.5142 23.3469 40.7423C23.9805 41.3754 24.6389 41.6562 25.2726 41.6095C25.8333 41.5626 26.2731 41.2817 26.5656 40.7657C26.8094 40.3201 26.9064 39.8033 26.8576 39.2169C26.7114 37.0826 26.9308 34.1042 27.5402 30.2814C28.1739 26.3415 28.9538 23.5033 29.9045 21.8146C30.0995 21.4628 30.173 21.1108 30.1486 20.6886C30.0999 20.1492 29.8559 19.7035 29.3928 19.3517C28.9297 19 28.4181 18.8362 27.8576 18.8829ZM37.341 21.4152C35.0008 21.4152 33.0995 22.5883 31.6125 24.9337C30.3448 26.9273 29.7111 29.1323 29.7111 31.548C29.7112 33.3538 30.101 34.9015 30.881 36.1915C31.7586 37.6691 33.0507 38.5604 34.7814 38.9122C35.2446 39.006 35.6834 39.0529 36.0978 39.0529C38.4623 39.0529 40.3637 37.8805 41.8263 35.5353C43.094 33.5182 43.7277 31.3132 43.7277 28.8976C43.7277 27.0683 43.3378 25.5441 42.5578 24.2775C41.6802 22.7999 40.3638 21.9076 38.6574 21.5558C38.1943 21.462 37.7553 21.4152 37.341 21.4152ZM52.6017 21.4152C50.2616 21.4153 48.3602 22.5884 46.8732 24.9337C45.6056 26.9273 44.9719 29.1324 44.9719 31.548C44.9719 33.3538 45.3618 34.9015 46.1418 36.1915C47.0194 37.6691 48.3115 38.5604 50.0422 38.9122C50.5053 39.006 50.9442 39.0528 51.3586 39.0529C53.7232 39.0529 55.6253 37.8807 57.0881 35.5353C58.3557 33.5182 58.9894 31.3132 58.9894 28.8976C59.0138 27.0682 58.5986 25.5441 57.8185 24.2775C56.9409 22.7999 55.6489 21.9076 53.9181 21.5558C53.4551 21.462 53.016 21.4152 52.6017 21.4152ZM35.2199 26.8331C36.0243 25.684 36.8784 25.2148 37.756 25.379C38.3409 25.4964 38.828 25.9893 39.1935 26.9034C39.4861 27.6305 39.633 28.358 39.633 29.0382C39.6574 29.6479 39.5839 30.2342 39.4621 30.7736C39.1208 32.3215 38.5115 33.4711 37.6096 34.2452C36.9027 34.855 36.2444 35.1124 35.6349 34.9952C35.0499 34.878 34.5621 34.3855 34.1965 33.4708C33.904 32.7439 33.758 32.0171 33.758 31.337C33.758 30.7509 33.8061 30.1644 33.9279 29.6251C34.1473 28.6635 34.5617 27.7244 35.2199 26.8331ZM50.5051 26.8331C51.3095 25.6839 52.1635 25.2148 53.0412 25.379C53.6261 25.4964 54.1141 25.989 54.4797 26.9034C54.7722 27.6305 54.9181 28.358 54.9181 29.0382C54.9181 29.6479 54.8691 30.2342 54.7472 30.7736C54.406 32.3215 53.7967 33.4711 52.8947 34.2452C52.1878 34.855 51.5295 35.1125 50.9201 34.9952C50.335 34.878 49.8473 34.3855 49.4816 33.4708C49.1892 32.7439 49.0432 32.0171 49.0431 31.337C49.0431 30.7509 49.0913 30.1644 49.2131 29.6251C49.4325 28.6635 49.8469 27.7244 50.5051 26.8331Z" fill="#4F495E"/>
</svg>
